<svg width="24" height="24" viewBox="0 0 24 24" fill="none" xmlns="http://www.w3.org/2000/svg">
<path fill-rule="evenodd" clip-rule="evenodd" d="M4 4H16V16H4V4ZM2 4C2 2.89543 2.89543 2 4 2H16C17.1046 2 18 2.89543 18 4V5H19C20.6569 5 22 6.34315 22 8V19C22 20.6569 20.6569 22 19 22H8C6.34315 22 5 20.6569 5 19V18H4C2.89543 18 2 17.1046 2 16V4ZM7 18V19C7 19.5523 7.44772 20 8 20H19C19.5523 20 20 19.5523 20 19V8C20 7.44772 19.5523 7 19 7H18V16C18 17.1046 17.1046 18 16 18H7ZM10 6C10.5523 6 11 6.44772 11 7V9H13C13.5523 9 14 9.44772 14 10C14 10.5523 13.5523 11 13 11H11V13C11 13.5523 10.5523 14 10 14C9.44772 14 9 13.5523 9 13V11H7C6.44772 11 6 10.5523 6 10C6 9.44771 6.44772 9 7 9H9V7C9 6.44772 9.44772 6 10 6Z" fill="white"/>
</svg>
